# Blender v2.79 (sub 0) OBJ File: 'enemy.blend'
# www.blender.org
mtllib enemy.mtl
o Icosphere
v 0.000000 -1.000000 0.000000
v 0.723600 -0.447215 0.525720
v -0.276385 -0.447215 0.850640
v -0.894425 -0.447215 0.000000
v -0.276385 -0.447215 -0.850640
v 0.723600 -0.447215 -0.525720
v 0.276385 0.447215 0.850640
v -0.723600 0.447215 0.525720
v -0.723600 0.447215 -0.525720
v 0.276385 0.447215 -0.850640
v 0.894425 0.447215 0.000000
v 0.000000 1.000000 0.000000
vt 0.718917 0.718273
vt 0.775462 0.750920
vt 0.718916 0.783566
vt 0.775462 0.685627
vt 0.832007 0.718274
vt 0.662372 0.750919
vt 0.662370 0.816212
vt 0.605824 0.783566
vt 0.605825 0.848859
vt 0.549279 0.816212
vt 0.549279 0.881505
vt 0.832007 0.783568
vt 0.775461 0.816214
vt 0.718916 0.848860
vt 0.662371 0.881506
vt 0.605825 0.914152
vt 0.549280 0.946799
vt 0.069475 0.346816
vt 0.494433 0.038062
vt 0.494433 0.484891
vt 0.231797 0.846382
vt 0.757069 0.846382
vt 0.919389 0.346816
vn 0.1876 -0.7947 0.5774
vn 0.6071 -0.7947 0.0000
vn -0.4911 -0.7947 0.3568
vn -0.4911 -0.7947 -0.3568
vn 0.1876 -0.7947 -0.5774
vn 0.9822 -0.1876 0.0000
vn 0.3035 -0.1876 0.9342
vn -0.7946 -0.1876 0.5774
vn -0.7946 -0.1876 -0.5774
vn 0.3035 -0.1876 -0.9342
vn 0.7946 0.1876 0.5774
vn -0.3035 0.1876 0.9342
vn -0.9822 0.1876 0.0000
vn -0.3035 0.1876 -0.9342
vn 0.7946 0.1876 -0.5774
vn 0.4911 0.7947 0.3568
vn -0.1876 0.7947 0.5774
vn -0.6071 0.7947 0.0000
vn -0.1876 0.7947 -0.5774
vn 0.4911 0.7947 -0.3568
usemtl Red
s off
f 1/1/1 2/2/1 3/3/1
f 2/2/2 1/4/2 6/5/2
f 1/6/3 3/3/3 4/7/3
f 1/8/4 4/7/4 5/9/4
f 1/10/5 5/9/5 6/11/5
f 2/2/6 6/5/6 11/12/6
f 3/3/7 2/2/7 7/13/7
f 4/7/8 3/3/8 8/14/8
f 5/9/9 4/7/9 9/15/9
f 6/11/10 5/9/10 10/16/10
f 2/2/11 11/12/11 7/13/11
f 3/3/12 7/13/12 8/14/12
f 4/7/13 8/14/13 9/15/13
f 5/9/14 9/15/14 10/16/14
f 6/11/15 10/16/15 11/17/15
f 7/18/16 11/19/16 12/20/16
f 8/21/17 7/18/17 12/20/17
f 9/22/18 8/21/18 12/20/18
f 10/23/19 9/22/19 12/20/19
f 11/19/20 10/23/20 12/20/20
